<svg xmlns="http://www.w3.org/2000/svg" width="52.12" height="46.168" viewBox="0 0 52.12 46.168">
                                    <g id="Group_718" data-name="Group 718" transform="translate(-2959.168 -11505.894)">
                                        <g id="Group_716" data-name="Group 716">
                                            <path id="Path_628" data-name="Path 628" d="M2970.188,11550.152a3.842,3.842,0,0,1-3.31,1.909,3.734,3.734,0,0,1-1.9-.51h0a3.833,3.833,0,0,1-1.4-5.22l.75-1.3h8.82Z" fill="#231f20" />
                                            <path id="Path_629" data-name="Path 629" d="M2962.988,11541.962a3.82,3.82,0,1,1,0-7.64h7.51l10.31-17.86-2.8-4.84a3.833,3.833,0,0,1,1.4-5.22h0a3.833,3.833,0,0,1,5.22,1.4l.59,1.021.59-1.021a3.833,3.833,0,0,1,5.22-1.4,3.774,3.774,0,0,1,1.78,2.319,3.819,3.819,0,0,1-.38,2.9l-13.11,22.7h8.26l4.41,7.649h-29v-.01Z" fill="#231f20" />
                                        </g>
                                        <g id="Group_717" data-name="Group 717">
                                            <path id="Path_630" data-name="Path 630" d="M3007.468,11541.962h-3.1l2.52,4.36a3.833,3.833,0,0,1-1.4,5.22,3.789,3.789,0,0,1-1.9.51,3.7,3.7,0,0,1-.99-.13,3.778,3.778,0,0,1-2.32-1.78l-13.27-22.979,4.41-7.65,8.54,14.8h7.51a3.825,3.825,0,0,1,0,7.65Z" fill="#231f20" />
                                            <path id="Path_631" data-name="Path 631" d="M2985.228,11534.322v7.64h6.78l-4.42-7.64Z" fill="#231f20" />
                                            <path id="Path_632" data-name="Path 632" d="M2992.818,11508.722a3.783,3.783,0,0,0-1.78-2.319,3.833,3.833,0,0,0-5.22,1.4l-.59,1.021h0v15.279l7.21-12.479A3.859,3.859,0,0,0,2992.818,11508.722Z" fill="#231f20" />
                                        </g>
                                    </g>
                                </svg>