<svg xmlns="http://www.w3.org/2000/svg" viewBox="0 0 63.99 59.21"><g id="Layer_2" data-name="Layer 2"><g id="Layer_1-2" data-name="Layer 1"><path className="cls-1" d="M26.83,48a5.63,5.63,0,1,0,5.63,5.63A5.64,5.64,0,0,0,26.83,48Zm0,8.12a2.49,2.49,0,1,1,2.49-2.49,2.5,2.5,0,0,1-2.49,2.49Z" /><path className="cls-1" d="M46.57,48a5.63,5.63,0,1,0,5.63,5.63A5.64,5.64,0,0,0,46.57,48Zm0,8.12a2.49,2.49,0,1,1,2.48-2.49,2.5,2.5,0,0,1-2.48,2.49Z" /><path className="cls-1" d="M48,18.33H25.44a1.57,1.57,0,0,0,0,3.14H48a1.57,1.57,0,1,0,0-3.14Z" /><path className="cls-1" d="M46.73,26.49H26.67a1.57,1.57,0,0,0,0,3.14H46.73a1.57,1.57,0,0,0,0-3.14Z" /><path className="cls-1" d="M63.28,11.33a3.12,3.12,0,0,0-2.43-1.16H11.91l-1-4.8A3.16,3.16,0,0,0,9.09,3.12L2.2.13A1.57,1.57,0,1,0,1,3L7.84,6l7.6,36.91a3.16,3.16,0,0,0,3.08,2.5H56.16a1.57,1.57,0,1,0,0-3.14H18.52l-.92-4.49H56.45a3.16,3.16,0,0,0,3.08-2.51l4.39-21.33a3.12,3.12,0,0,0-.64-2.61ZM56.45,34.64H17L12.56,13.31H60.84Z" /></g></g></svg>
    