<svg xmlns="http://www.w3.org/2000/svg" width="183.891" height="166.355" viewBox="0 0 183.891 166.355">
  <g id="Group_557" data-name="Group 557" transform="translate(-761.747 -2477.749)">
    <g id="Group_553" data-name="Group 553">
      <g id="Group_550" data-name="Group 550">
        <path id="Path_410" data-name="Path 410" d="M922.077,2644.1a10.555,10.555,0,0,1-7.959-3.615,10.585,10.585,0,0,1-18.549-6.976v-36.075a9.112,9.112,0,0,1-12.98-8.257v-29.788a17.586,17.586,0,0,1,17.567-17.567h27.915a17.6,17.6,0,0,1,17.567,17.567v29.788a9.114,9.114,0,0,1-12.981,8.257v36.075a10.591,10.591,0,0,1-10.58,10.591Zm-5.331-10.586a5.332,5.332,0,1,0,10.661,0v-65.585a2.628,2.628,0,0,1,5.255,0v21.253a3.858,3.858,0,0,0,3.863,3.964,3.858,3.858,0,0,0,3.858-3.964V2559.4a12.323,12.323,0,0,0-12.312-12.312H900.156a12.326,12.326,0,0,0-12.312,12.312v29.788a3.858,3.858,0,1,0,7.715,0v-21.253a2.628,2.628,0,0,1,5.255,0v65.585a5.336,5.336,0,0,0,10.672,0v-33.078a2.628,2.628,0,0,1,5.255,0v33.078Z" fill="#f4f4f4"/>
      </g>
      <g id="Group_551" data-name="Group 551">
        <path id="Path_411" data-name="Path 411" d="M914.3,2547.085h-.37a17.6,17.6,0,0,1-17.228-17.774v-1.357a17.6,17.6,0,0,1,17.258-17.775h.309a17.6,17.6,0,0,1,17.268,17.775v1.357a17.6,17.6,0,0,1-17.237,17.774Zm-.041-31.656h-.283a12.326,12.326,0,0,0-12.014,12.52v1.357a12.342,12.342,0,0,0,12.014,12.519h.283a12.349,12.349,0,0,0,12.034-12.519v-1.357a12.36,12.36,0,0,0-12.034-12.52Z" fill="#f4f4f4"/>
      </g>
      <g id="Group_552" data-name="Group 552">
        <path id="Path_412" data-name="Path 412" d="M801.235,2644.1a10.559,10.559,0,0,1-7.958-3.615,10.584,10.584,0,0,1-18.549-6.976v-36.075a9.113,9.113,0,0,1-12.981-8.257v-29.788a17.586,17.586,0,0,1,17.567-17.567h27.915a17.6,17.6,0,0,1,17.567,17.567v29.788a9.113,9.113,0,0,1-12.981,8.257v36.075a10.591,10.591,0,0,1-10.58,10.591Zm-5.331-43.664v33.078a5.332,5.332,0,1,0,10.662,0v-65.585a2.625,2.625,0,1,1,5.249,0v21.253a3.864,3.864,0,1,0,7.726,0V2559.4a12.323,12.323,0,0,0-12.312-12.312H779.314A12.326,12.326,0,0,0,767,2559.4v29.788a3.863,3.863,0,1,0,7.726,0v-21.253a2.627,2.627,0,1,1,5.254,0v65.585a5.333,5.333,0,1,0,10.667,0v-33.078a2.628,2.628,0,0,1,5.255,0Z" fill="#f4f4f4"/>
      </g>
    </g>
    <path id="Path_413" data-name="Path 413" d="M793.449,2547.085h-.365a17.594,17.594,0,0,1-17.222-17.774v-1.357a17.606,17.606,0,0,1,17.253-17.78h.308a17.607,17.607,0,0,1,17.274,17.775v1.357a17.608,17.608,0,0,1-17.248,17.779Zm-.264-5.255h.238a12.349,12.349,0,0,0,12.014-12.519v-1.357a12.349,12.349,0,0,0-12.029-12.52h-.283a12.329,12.329,0,0,0-12.014,12.52v1.357a12.346,12.346,0,0,0,12.014,12.519Z" fill="#f4f4f4"/>
    <path id="Path_414" data-name="Path 414" d="M885.034,2628.475H822.361a2.628,2.628,0,1,1,0-5.255h62.673a2.628,2.628,0,1,1,0,5.255Z" fill="#f4f4f4"/>
    <path id="Path_415" data-name="Path 415" d="M876.686,2636.823a2.628,2.628,0,0,1-1.858-4.485l6.49-6.491-6.49-6.49a2.628,2.628,0,0,1,3.716-3.716l8.348,8.343a2.633,2.633,0,0,1,0,3.716l-8.348,8.353a2.621,2.621,0,0,1-1.858.77Z" fill="#f4f4f4"/>
    <g id="Group_556" data-name="Group 556">
      <g id="Group_554" data-name="Group 554">
        <path id="Path_416" data-name="Path 416" d="M830.709,2636.823a2.633,2.633,0,0,1-1.858-.77l-8.348-8.348a2.623,2.623,0,0,1,0-3.715l8.348-8.343a2.624,2.624,0,1,1,3.71,3.71l-6.49,6.49,6.49,6.491a2.625,2.625,0,0,1-1.852,4.485Z" fill="#f4f4f4"/>
      </g>
      <g id="Group_555" data-name="Group 555">
        <path id="Path_417" data-name="Path 417" d="M853.7,2542.114a32.183,32.183,0,1,1,32.183-32.183,32.186,32.186,0,0,1-32.183,32.183Zm0-59.11a26.928,26.928,0,1,0,26.923,26.927A26.927,26.927,0,0,0,853.7,2483Z" fill="#f4f4f4"/>
      </g>
    </g>
    <path id="Path_418" data-name="Path 418" d="M848.068,2521.707a2.629,2.629,0,0,1-1.858-.77l-7.037-7.032a2.628,2.628,0,0,1,3.716-3.715l5.179,5.173,16.438-16.437a2.628,2.628,0,0,1,3.716,3.715l-18.3,18.3a2.638,2.638,0,0,1-1.858.77Z" fill="#f4f4f4"/>
  </g>
</svg>