<svg xmlns="http://www.w3.org/2000/svg" width="143.991" height="144.002" viewBox="0 0 143.991 144.002">
  <g id="Group_568" data-name="Group 568" transform="translate(-2375.428 -2491.362)">
    <g id="Group_567" data-name="Group 567">
      <g id="Group_566" data-name="Group 566">
        <path id="Path_434" data-name="Path 434" d="M2473.047,2534.111h14.591a16.2,16.2,0,1,0,0-8.438h-14.587a28.1,28.1,0,0,0-51.859-10.365l-13.511-5.629a16.232,16.232,0,0,0-9.822-17.066,16.159,16.159,0,0,0-21.142,8.741,16.178,16.178,0,0,0,27.735,16.122l13.5,5.625a28.306,28.306,0,0,0-.424,11.572l-15.4,5.13a16.269,16.269,0,0,0-4.342-2.674,16.02,16.02,0,0,0-12.368-.007,16.21,16.21,0,0,0-.022,29.936,16.045,16.045,0,0,0,12.367.011,16.228,16.228,0,0,0,9.2-19.98l13.226-4.406a28.337,28.337,0,0,0,12.338,12.345v13.961H2428.1a12.752,12.752,0,0,0-12.738,12.743v22.714a4.2,4.2,0,0,0,.622,2.208l11.9,19.343a19.789,19.789,0,0,0,16.751,9.367h43.89a20.655,20.655,0,0,0,20.629-20.64V2582.8a27.879,27.879,0,0,0-35.651-16.518,12.751,12.751,0,0,0-11.179-6.634,12.6,12.6,0,0,0-4.305.75V2555a28.266,28.266,0,0,0,15.034-20.887Zm30.2-11.978a7.763,7.763,0,1,1-7.732,7.763,7.758,7.758,0,0,1,7.732-7.763Zm-104.46-11.58a7.724,7.724,0,0,1-10.106,4.185,7.781,7.781,0,0,1-4.174-10.151,7.707,7.707,0,0,1,10.1-4.189,7.783,7.783,0,0,1,4.177,10.155Zm-4.245,48.713a7.723,7.723,0,0,1-10.095-4.212,7.783,7.783,0,0,1,4.2-10.143,7.726,7.726,0,0,1,10.095,4.215,7.782,7.782,0,0,1-4.2,10.14Zm63.473,22.05v-8.922a4.3,4.3,0,1,1,8.61,0v14.123a4.219,4.219,0,1,0,8.437,0V2577.6a4.305,4.305,0,1,1,8.61,0v16.725a4.219,4.219,0,0,0,8.438,0V2582.8a4.3,4.3,0,1,1,8.61,0v31.92a12.212,12.212,0,0,1-12.191,12.2h-43.9a11.3,11.3,0,0,1-9.562-5.347l-11.269-18.323,0-21.521a4.306,4.306,0,0,1,4.3-4.3h4.433v13.009h0a4.221,4.221,0,0,0,4.218,4.26h0a4.2,4.2,0,0,0,4.215-4.26V2573.2c0-.048,0-.1,0-.15v-32.666a4.3,4.3,0,1,1,8.6,0v40.932a4.224,4.224,0,0,0,8.449,0Zm0-36.413v-4.519a12.739,12.739,0,1,0-25.477,0v4.564a19.686,19.686,0,1,1,25.477-.049Z" fill="#f4f4f4"/>
      </g>
    </g>
  </g>
</svg>
