<svg xmlns="http://www.w3.org/2000/svg" width="139.5" height="139.5" viewBox="0 0 139.5 139.5">
  <g id="Group_569" data-name="Group 569" transform="translate(-2916.488 -2494.611)">
    <path id="Path_435" data-name="Path 435" d="M2963.738,2588.9a8.789,8.789,0,0,0-6.75-8.527v-4.759h-4.5v4.762a8.771,8.771,0,0,0-.739,16.86l4.557,1.523a4.287,4.287,0,0,1-1.354,8.355h-.424a4.288,4.288,0,0,1-4.29-4.286v-2.464h-4.5v2.464a8.782,8.782,0,0,0,6.75,8.523v4.763h4.5v-4.763a8.771,8.771,0,0,0,.739-16.86l-4.556-1.522a4.287,4.287,0,0,1,1.353-8.355h.424a4.293,4.293,0,0,1,4.29,4.286v.214Z" fill="#f4f4f4"/>
    <path id="Path_436" data-name="Path 436" d="M2954.738,2566.611a29.25,29.25,0,1,0,29.25,29.25,29.282,29.282,0,0,0-29.25-29.25Zm0,54a24.75,24.75,0,1,1,24.75-24.75,24.78,24.78,0,0,1-24.75,24.75Z" fill="#f4f4f4"/>
    <path id="Path_437" data-name="Path 437" d="M3010.988,2595.861a6.735,6.735,0,0,0,4.5,6.334v4.916h4.5V2602.2a6.728,6.728,0,1,0-5.141-12.409l-6.769-6.769-3.18,3.18,6.769,6.769a6.661,6.661,0,0,0-.679,2.9Zm6.75-2.25a2.25,2.25,0,1,1-2.25,2.25,2.252,2.252,0,0,1,2.25-2.25Z" fill="#f4f4f4"/>
    <path id="Path_438" data-name="Path 438" d="M3034,2561.293c.217-.81.461-1.627.63-2.422l5.606-1.894v-16.732l-5.606-1.89a48.865,48.865,0,0,0-6.915-16.729l2.617-5.284-11.827-11.831-5.284,2.617a48.817,48.817,0,0,0-16.729-6.915l-1.89-5.6h-16.732l-1.89,5.606a48.937,48.937,0,0,0-16.733,6.919l-5.28-2.625-11.831,11.831,2.621,5.284a48.852,48.852,0,0,0-6.915,16.729l-5.606,1.89v16.732l5.606,1.89c.169.8.413,1.613.63,2.423a38.223,38.223,0,1,0,47.768,56.22,38.222,38.222,0,1,0,47.76-56.217Zm-91.991-4.545-.237-1.3-5.036-1.7v-10.268l5.036-1.7.237-1.305a44.442,44.442,0,0,1,7.192-17.4l.75-1.087-2.351-4.748,7.26-7.26,4.751,2.351,1.088-.753a44.439,44.439,0,0,1,17.4-7.193l1.3-.236,1.7-5.04h10.268l1.695,5.032,1.305.24a44.472,44.472,0,0,1,17.4,7.193l1.088.754,4.747-2.352,7.26,7.26-2.347,4.748.75,1.087a44.4,44.4,0,0,1,7.192,17.4l.236,1.3,5.04,1.7v10.268l-5.036,1.7-.236,1.305c-.173.937-.39,1.89-.63,2.853-1.013-.337-2.048-.622-3.094-.877V2552.7a6.726,6.726,0,0,0-1.016-12.963,40.475,40.475,0,1,0-78.758,18.675,37.581,37.581,0,0,0-4.316,1.192c-.247-.964-.465-1.92-.637-2.854Zm19.005,1.422a26.984,26.984,0,1,1,50.673-18.559h-.7a6.734,6.734,0,0,0-2.25,13.087v6.012a38.282,38.282,0,0,0-22.5,15.5,38.307,38.307,0,0,0-25.226-16.042Zm-9.567-.39a35.985,35.985,0,1,1,69.638-18.169h-4.68a31.489,31.489,0,1,0-60.33,18.067c-.446-.015-.889-.067-1.339-.067-1.11,0-2.2.075-3.289.169Zm73.039-9.169h-13.5a2.25,2.25,0,0,1,0-4.5h13.5a2.25,2.25,0,0,1,0,4.5Zm-11.25,4.5h9v4.789a35.439,35.439,0,0,0-9,0Zm-58.5,76.5a33.75,33.75,0,1,1,33.75-33.75,33.789,33.789,0,0,1-33.75,33.75Zm43.991-49.575,3.1,3.1,3.184-3.18-3.1-3.1a24.632,24.632,0,0,1,13.575-5.629v4.384h4.5v-4.388a24.629,24.629,0,0,1,13.575,5.629l-3.1,3.1,3.18,3.18,3.1-3.1a24.63,24.63,0,0,1,5.629,13.575h-4.384v4.5h4.388a24.628,24.628,0,0,1-5.629,13.575l-3.1-3.1-3.18,3.18,3.1,3.1a24.6,24.6,0,0,1-13.575,5.629v-4.38h-4.5v4.387a24.628,24.628,0,0,1-13.575-5.628l3.1-3.1-3.183-3.18-3.1,3.1a24.632,24.632,0,0,1-5.629-13.575h4.384v-4.5H2993.1a24.632,24.632,0,0,1,5.628-13.579Zm19.009,49.575a33.758,33.758,0,0,1-28.935-16.433,38.2,38.2,0,0,0,2.258-5.385,29.247,29.247,0,1,0,0-23.861,37.962,37.962,0,0,0-2.258-5.385,33.739,33.739,0,1,1,28.939,51.064Z" fill="#f4f4f4"/>
    <path id="Path_439" data-name="Path 439" d="M2963.738,2548.611h4.5a17.917,17.917,0,0,1,10-16.133l-2.006-4.031a22.4,22.4,0,0,0-12.495,20.164Z" fill="#f4f4f4"/>
    <path id="Path_440" data-name="Path 440" d="M2982.237,2531.057a18.119,18.119,0,0,1,4-.446v-4.5a22.543,22.543,0,0,0-5,.559Z" fill="#f4f4f4"/>
  </g>
</svg>
