<svg  xmlns="http://www.w3.org/2000/svg" width="190.946" height="152.864" viewBox="0 0 190.946 152.864">
                            <g id="Group_686" data-name="Group 686" transform="translate(-628.73 -11100.204)">
                                <g id="Group_679" data-name="Group 679">
                                    <g id="Group_678" data-name="Group 678">
                                        <g id="Group_657" data-name="Group 657">
                                            <g id="Group_656" data-name="Group 656">
                                                <path id="Path_606" data-name="Path 606" d="M645.18,11239.018a4.762,4.762,0,0,0,1.147-.1,3.939,3.939,0,0,1,.174,1.165c0,.226-.1.347-.295.347h-1.67v10.435l.087,2a10.046,10.046,0,0,1-1.426.1c-.226,0-.347-.122-.347-.365v-12.173h-.644a4.693,4.693,0,0,0-1.147.105,3.942,3.942,0,0,1-.174-1.165c0-.227.1-.349.295-.349Z" fill="#cd07f6" />
                                            </g>
                                        </g>
                                        <g id="Group_659" data-name="Group 659">
                                            <g id="Group_658" data-name="Group 658">
                                                <path id="Path_607" data-name="Path 607" d="M655.839,11252.6v-11.547a2.043,2.043,0,0,1,.73-1.669,3.655,3.655,0,0,1,3.93-.035,1.918,1.918,0,0,1,.7,1.617v10.069a.659.659,0,0,0,.8.8c0,.818-.452,1.218-1.357,1.218-.747,0-1.13-.486-1.13-1.461v-4.068h-1.982v3.32l.087,2a9.915,9.915,0,0,1-1.426.1C655.961,11252.964,655.839,11252.842,655.839,11252.6Zm1.687-11.547v5.062h1.982v-5.062a.721.721,0,0,0-.278-.626,1.08,1.08,0,0,0-.73-.226,1.006,1.006,0,0,0-.713.226A.8.8,0,0,0,657.526,11241.052Z" fill="#cd07f6" />
                                            </g>
                                        </g>
                                        <g id="Group_661" data-name="Group 661">
                                            <g id="Group_660" data-name="Group 660">
                                                <path id="Path_608" data-name="Path 608" d="M671.454,11252.6v-11.512a1.021,1.021,0,0,0-.174-.678.771.771,0,0,0-.626-.209,1.109,1.109,0,0,1,.3-.869,1.419,1.419,0,0,1,1.026-.313,1.035,1.035,0,0,1,1.008.7,2.6,2.6,0,0,1,1.7-.7,1.851,1.851,0,0,1,2.105,2.088v5.233a2.04,2.04,0,0,1-.731,1.669,3.024,3.024,0,0,1-1.982.591h-.939v2.262l.087,2a10.058,10.058,0,0,1-1.426.1C671.559,11252.964,671.454,11252.842,671.454,11252.6Zm2.817-12.173a1.655,1.655,0,0,0-1.147.574v6.191h.973a1.115,1.115,0,0,0,.731-.227.764.764,0,0,0,.278-.626v-5.113C675.106,11240.687,674.828,11240.426,674.271,11240.426Z" fill="#cd07f6" />
                                            </g>
                                        </g>
                                        <g id="Group_663" data-name="Group 663">
                                            <g id="Group_662" data-name="Group 662">
                                                <path id="Path_609" data-name="Path 609" d="M701.485,11240.757a8.154,8.154,0,0,0-.157-1.739,13.83,13.83,0,0,1,1.461-.087q.364,0,.365.313v11.563a2.043,2.043,0,0,1-.73,1.669,2.959,2.959,0,0,1-1.948.592,3.164,3.164,0,0,1-1.948-.539,1.689,1.689,0,0,1-.73-1.408v-1.444c0-.261.191-.434.557-.539a2.333,2.333,0,0,1,.591-.087,2.307,2.307,0,0,1,.591.07,10.467,10.467,0,0,0-.07,1.078v.626a.718.718,0,0,0,.279.626,1.08,1.08,0,0,0,.73.226,1.034,1.034,0,0,0,.713-.226.8.8,0,0,0,.261-.626v-3.339a2.04,2.04,0,0,1-1.5.557c-1.443,0-2.173-.678-2.173-2.052v-5.183a.66.66,0,0,0-.8-.8c0-.816.452-1.217,1.356-1.217.748,0,1.13.487,1.13,1.461v5.6a.687.687,0,0,0,.783.766,1.3,1.3,0,0,0,1.2-.748v-5.112Z" fill="#cd07f6" />
                                            </g>
                                        </g>
                                        <g id="Group_665" data-name="Group 665">
                                            <g id="Group_664" data-name="Group 664">
                                                <path id="Path_610" data-name="Path 610" d="M713.152,11250.894v-9.842a2.041,2.041,0,0,1,.731-1.669,3.03,3.03,0,0,1,1.982-.591,3.063,3.063,0,0,1,1.948.556,1.92,1.92,0,0,1,.7,1.617v9.843a2.04,2.04,0,0,1-.73,1.669,3.621,3.621,0,0,1-3.913.035A1.884,1.884,0,0,1,713.152,11250.894Zm1.687-9.842v9.756a.8.8,0,0,0,.261.626,1.034,1.034,0,0,0,.713.227,1.113,1.113,0,0,0,.73-.227.761.761,0,0,0,.278-.626v-9.756a.721.721,0,0,0-.278-.626,1.08,1.08,0,0,0-.73-.226,1.034,1.034,0,0,0-.713.226A.8.8,0,0,0,714.839,11241.052Z" fill="#cd07f6" />
                                            </g>
                                        </g>
                                        <g id="Group_667" data-name="Group 667">
                                            <g id="Group_666" data-name="Group 666">
                                                <path id="Path_611" data-name="Path 611" d="M732.263,11240.757a8.154,8.154,0,0,0-.157-1.739,13.83,13.83,0,0,1,1.461-.087q.364,0,.365.313v11.79a.945.945,0,0,0,.174.643.838.838,0,0,0,.626.191,1.111,1.111,0,0,1-.3.87,1.2,1.2,0,0,1-.887.313,1.1,1.1,0,0,1-1.147-.661,2.106,2.106,0,0,1-1.635.661c-1.443,0-2.173-.679-2.173-2.052v-10.207a.66.66,0,0,0-.8-.8c0-.818.452-1.218,1.356-1.218.748,0,1.13.486,1.13,1.461v10.625a.686.686,0,0,0,.783.765,1.3,1.3,0,0,0,1.2-.748Z" fill="#cd07f6" />
                                            </g>
                                        </g>
                                        <g id="Group_669" data-name="Group 669">
                                            <g id="Group_668" data-name="Group 668">
                                                <path id="Path_612" data-name="Path 612" d="M744.243,11252.6v-11.512a1.027,1.027,0,0,0-.173-.678.772.772,0,0,0-.626-.209,1.109,1.109,0,0,1,.3-.869,1.42,1.42,0,0,1,1.026-.313,1.037,1.037,0,0,1,1.009.7,2.6,2.6,0,0,1,1.7-.7,1.85,1.85,0,0,1,2.1,2.088v4.938a2,2,0,0,1-1.13,1.913l.452,2.851c.069.453.295.68.66.68a1.288,1.288,0,0,0,.4-.087,2.014,2.014,0,0,1,.087.607,1.027,1.027,0,0,1-.347.7,1.249,1.249,0,0,1-.9.348c-.834,0-1.321-.366-1.426-1.078l-.626-3.687h-.817v2.556l.087,2a9.9,9.9,0,0,1-1.426.1C744.365,11252.964,744.243,11252.842,744.243,11252.6Zm2.835-12.173a1.658,1.658,0,0,0-1.148.574v5.895h.974a1.11,1.11,0,0,0,.73-.226.76.76,0,0,0,.278-.626v-4.817C747.913,11240.687,747.634,11240.426,747.078,11240.426Z" fill="#cd07f6" />
                                            </g>
                                        </g>
                                        <g id="Group_671" data-name="Group 671">
                                            <g id="Group_670" data-name="Group 670">
                                                <path id="Path_613" data-name="Path 613" d="M775.282,11252.477a3.56,3.56,0,0,1-3.877.035,1.918,1.918,0,0,1-.7-1.618v-9.842a2.043,2.043,0,0,1,.73-1.669,2.965,2.965,0,0,1,1.948-.591,3.158,3.158,0,0,1,1.948.539,1.689,1.689,0,0,1,.73,1.408v2.644c0,.26-.191.435-.557.539a2.275,2.275,0,0,1-1.182.018,10.486,10.486,0,0,0,.07-1.078v-1.81a.719.719,0,0,0-.279-.626,1.08,1.08,0,0,0-.73-.226,1.034,1.034,0,0,0-.713.226.8.8,0,0,0-.261.626v9.756a.8.8,0,0,0,.261.626,1.034,1.034,0,0,0,.713.227,1.111,1.111,0,0,0,.73-.227.759.759,0,0,0,.279-.626v-.47l-.07-1.078a3.387,3.387,0,0,1,.591-.069,2.283,2.283,0,0,1,.591.087c.366.1.557.278.557.539v1.165A1.972,1.972,0,0,1,775.282,11252.477Z" fill="#cd07f6" />
                                            </g>
                                        </g>
                                        <g id="Group_673" data-name="Group 673">
                                            <g id="Group_672" data-name="Group 672">
                                                <path id="Path_614" data-name="Path 614" d="M786.046,11252.6v-11.755a.66.66,0,0,0-.8-.8c0-.817.452-1.217,1.356-1.217.748,0,1.131.487,1.131,1.46v5.564h1.982v-4.834l-.087-2a10.043,10.043,0,0,1,1.426-.1.318.318,0,0,1,.348.365v11.771a.66.66,0,0,0,.8.8c0,.817-.452,1.218-1.357,1.218-.747,0-1.13-.487-1.13-1.461v-4.348h-1.982v3.6l.087,2a10.058,10.058,0,0,1-1.426.1C786.15,11252.964,786.046,11252.842,786.046,11252.6Z" fill="#cd07f6" />
                                            </g>
                                        </g>
                                        <g id="Group_675" data-name="Group 675">
                                            <g id="Group_674" data-name="Group 674">
                                                <path id="Path_615" data-name="Path 615" d="M801.609,11252.6v-11.581l-.087-2a10.044,10.044,0,0,1,1.426-.1.318.318,0,0,1,.348.365v11.581l.087,2a10.057,10.057,0,0,1-1.426.1A.318.318,0,0,1,801.609,11252.6Z" fill="#cd07f6" />
                                            </g>
                                        </g>
                                        <g id="Group_677" data-name="Group 677">
                                            <g id="Group_676" data-name="Group 676">
                                                <path id="Path_616" data-name="Path 616" d="M813.485,11252.6v-11.512a1.027,1.027,0,0,0-.173-.678.772.772,0,0,0-.626-.209,1.109,1.109,0,0,1,.3-.869,1.42,1.42,0,0,1,1.026-.313,1.037,1.037,0,0,1,1.009.7,2.6,2.6,0,0,1,1.7-.7,1.85,1.85,0,0,1,2.1,2.088v5.233a2.04,2.04,0,0,1-.731,1.669,3.023,3.023,0,0,1-1.982.591h-.939v2.262l.087,2a10.046,10.046,0,0,1-1.426.1A.318.318,0,0,1,813.485,11252.6Zm2.835-12.173a1.658,1.658,0,0,0-1.148.574v6.191h.974a1.111,1.111,0,0,0,.73-.227.761.761,0,0,0,.278-.626v-5.113C817.154,11240.687,816.876,11240.426,816.32,11240.426Z" fill="#cd07f6" />
                                            </g>
                                        </g>
                                    </g>
                                </g>
                                <g id="Group_685" data-name="Group 685">
                                    <g id="Group_684" data-name="Group 684">
                                        <g id="Group_681" data-name="Group 681">
                                            <path id="Path_617" data-name="Path 617" d="M719.412,11228.793l31.126-20.258-20.223,1.061Z" fill="#cd07f6" />
                                            <g id="Group_680" data-name="Group 680">
                                                <path id="Path_618" data-name="Path 618" d="M819.659,11155.1l-103.376,43.194-10.381-7.339Z" fill="#fff" />
                                                <path id="Path_619" data-name="Path 619" d="M819.659,11155.1l-9.32,12.051-48.271,62.339-22.292-13.946-9.477-5.947,70.146-42.775Z" fill="#fff" />
                                            </g>
                                        </g>
                                        <g id="Group_683" data-name="Group 683">
                                            <g id="Group_682" data-name="Group 682">
                                                <path id="Path_620" data-name="Path 620" d="M781.542,11124.878a14.786,14.786,0,0,1,4.556-3.13,13.573,13.573,0,0,1,5.565-1.147h27.995v-20.4H793.436a34.472,34.472,0,0,0-13.6,2.712,34.711,34.711,0,0,0-18.623,18.624,34.384,34.384,0,0,0-2.713,13.6,33.866,33.866,0,0,0,2.713,13.528,34.983,34.983,0,0,0,7.477,11.077,34.476,34.476,0,0,0,5.165,4.242h0l45.8-14.433H791.663a13.456,13.456,0,0,1-5.565-1.147,14.8,14.8,0,0,1-4.556-3.13,14.988,14.988,0,0,1-3.13-4.557,13.584,13.584,0,0,1-1.147-5.581,14.01,14.01,0,0,1,1.147-5.634A14.5,14.5,0,0,1,781.542,11124.878Z" fill="#cd07f6" />
                                                <path id="Path_621" data-name="Path 621" d="M741.531,11100.2l-17.928,45.123-16.45-40.915a6.208,6.208,0,0,0-.313-.592l-1.46-3.616H628.73v20.379h27.179v81.067l20.379-6.417v-74.65h16.989l20.4,49.349-6.19,15.477h0l23.318-7.355,31.126-77.849Z" fill="#cd07f6" />
                                            </g>
                                        </g>
                                    </g>
                                </g>
                            </g>
                        </svg>