 <svg  xmlns="http://www.w3.org/2000/svg" width="37.355" height="44.399" viewBox="0 0 37.355 44.399">
                                    <g id="Group_719" data-name="Group 719" transform="translate(-2974.388 -11352.643)">
                                        <path id="Path_633" data-name="Path 633" d="M2974.388,11355.272v39.14a2.63,2.63,0,0,0,4,2.24l32.1-19.7a2.63,2.63,0,0,0-.01-4.49l-32.1-19.43a2.621,2.621,0,0,0-3.99,2.24Z" fill="#ffc100" />
                                        <path id="Path_634" data-name="Path 634" d="M2976.368,11396.952l26.79-28.93-24.78-15a2.635,2.635,0,0,0-3.99,2.25v39.14a2.611,2.611,0,0,0,1.98,2.54Z" fill="#d8e86d" />
                                        <path id="Path_635" data-name="Path 635" d="M2978.4,11396.642l22.04-13.52,2.73-1.68-26.81-28.721a2.616,2.616,0,0,0-1.97,2.551v39.14a2.627,2.627,0,0,0,4.01,2.229Z" fill="#f52b2b" />
                                        <path id="Path_636" data-name="Path 636" d="M2976.368,11396.952l20.55-22.19-20.56-22.04a2.616,2.616,0,0,0-1.97,2.551v39.14a2.611,2.611,0,0,0,1.98,2.54Z" fill="#00b7ad" />
                                    </g>
                                </svg>