<svg version="1.1" id="Icons" xmlns="http://www.w3.org/2000/svg" xmlnsXlink="http://www.w3.org/1999/xlink" x="0px" y="0px"
                            viewBox="0 0 32 32" xmlSpace="preserve">
                            <path d="M16,2C8.3,2,2,8.3,2,16s6.3,14,14,14s14-6.3,14-14S23.7,2,16,2z M22,21H10c-0.6,0-1-0.4-1-1s0.4-1,1-1h12c0.6,0,1,0.4,1,1
	                            S22.6,21,22,21z M22,17H10c-0.6,0-1-0.4-1-1s0.4-1,1-1h12c0.6,0,1,0.4,1,1S22.6,17,22,17z M22,13H10c-0.6,0-1-0.4-1-1s0.4-1,1-1h12
	                            c0.6,0,1,0.4,1,1S22.6,13,22,13z"/>
                        </svg>