<svg xmlns="http://www.w3.org/2000/svg" width="168" height="167.179" viewBox="0 0 168 167.179">
  <g id="Group_564" data-name="Group 564" transform="translate(-1299.757 -2483.004)">
    <path id="Path_419" data-name="Path 419" d="M1384.578,2595.825,1368.6,2611.8h-11.681l12.021-12.021a2.793,2.793,0,0,0,0-3.958,14.68,14.68,0,0,0-20.757,0l-7.583,7.579h-10.043a2.788,2.788,0,0,0-1.979.821l-12.11,12.106a2.8,2.8,0,0,0-3.29.494l-12.6,12.6,3.958,3.958,10.621-10.622L1333.6,2641.2l-5.022,5.021,3.958,3.958,7-7a2.8,2.8,0,0,0,0-3.958l-2.222-2.221,5.6-5.6h29.643a2.788,2.788,0,0,0,1.979-.821l30.8-30.8a2.8,2.8,0,0,0,0-3.958,14.69,14.69,0,0,0-20.758,0ZM1371.4,2625.8h-29.643a2.788,2.788,0,0,0-1.979.821l-6.421,6.422-12.843-12.843,11.2-11.2h10.043a2.788,2.788,0,0,0,1.979-.821l8.4-8.4a9.1,9.1,0,0,1,10.551-1.671l-17.309,17.309,3.958,3.957,1.978-1.979h18.443a2.788,2.788,0,0,0,1.979-.821l16.8-16.8a9.1,9.1,0,0,1,10.546-1.666Z" fill="#f4f4f4"/>
    <path id="Path_420" data-name="Path 420" d="M1377.13,2548.02l-3.957,3.957,42.205,42.206a2.8,2.8,0,0,0,1.979.821h50.4v-5.6h-49.243Z" fill="#f4f4f4"/>
    <path id="Path_421" data-name="Path 421" d="M1404.178,2517.425l-71.059,71.06,3.957,3.957,70.238-70.238h60.443v-5.6h-61.6a2.788,2.788,0,0,0-1.979.821Z" fill="#f4f4f4"/>
    <g id="Group_560" data-name="Group 560">
      <g id="Group_558" data-name="Group 558">
        <path id="Path_422" data-name="Path 422" d="M1373.047,2554.651l3.957-3.957-30.468-30.469a2.788,2.788,0,0,0-1.979-.821h-44.8v5.6H1343.4Z" fill="#f4f4f4"/>
      </g>
      <g id="Group_559" data-name="Group 559">
        <path id="Path_423" data-name="Path 423" d="M1456.557,2513.8h-39.2a11.215,11.215,0,0,1-11.2-11.2v-8.4a11.215,11.215,0,0,1,11.2-11.2h39.2a11.215,11.215,0,0,1,11.2,11.2v8.4a11.215,11.215,0,0,1-11.2,11.2Zm-39.2-25.2a5.608,5.608,0,0,0-5.6,5.6v8.4a5.605,5.605,0,0,0,5.6,5.6h39.2a5.608,5.608,0,0,0,5.6-5.6v-8.4a5.608,5.608,0,0,0-5.6-5.6Z" fill="#f4f4f4"/>
      </g>
    </g>
    <rect id="Rectangle_115" data-name="Rectangle 115" width="11.2" height="5.6" transform="translate(1420.157 2491.404)" fill="#f4f4f4"/>
    <rect id="Rectangle_116" data-name="Rectangle 116" width="22.4" height="5.6" transform="translate(1436.957 2491.404)" fill="#f4f4f4"/>
    <rect id="Rectangle_117" data-name="Rectangle 117" width="22.4" height="5.6" transform="translate(1414.557 2499.804)" fill="#f4f4f4"/>
    <rect id="Rectangle_118" data-name="Rectangle 118" width="11.2" height="5.6" transform="translate(1442.557 2499.804)" fill="#f4f4f4"/>
    <path id="Path_424" data-name="Path 424" d="M1456.557,2631.4h-28a11.215,11.215,0,0,1-11.2-11.2V2609a11.215,11.215,0,0,1,11.2-11.2h28a11.215,11.215,0,0,1,11.2,11.2v11.2a11.215,11.215,0,0,1-11.2,11.2Zm-28-28a5.608,5.608,0,0,0-5.6,5.6v11.2a5.6,5.6,0,0,0,5.6,5.6h28a5.608,5.608,0,0,0,5.6-5.6V2609a5.608,5.608,0,0,0-5.6-5.6Z" fill="#f4f4f4"/>
    <rect id="Rectangle_119" data-name="Rectangle 119" width="16.8" height="5.6" transform="translate(1431.357 2606.204)" fill="#f4f4f4"/>
    <rect id="Rectangle_120" data-name="Rectangle 120" width="5.6" height="5.6" transform="translate(1453.757 2606.204)" fill="#f4f4f4"/>
    <rect id="Rectangle_121" data-name="Rectangle 121" width="5.6" height="5.6" transform="translate(1425.757 2617.404)" fill="#f4f4f4"/>
    <g id="Group_563" data-name="Group 563">
      <g id="Group_561" data-name="Group 561">
        <rect id="Rectangle_122" data-name="Rectangle 122" width="16.8" height="5.6" transform="translate(1436.957 2617.404)" fill="#f4f4f4"/>
      </g>
      <g id="Group_562" data-name="Group 562">
        <path id="Path_425" data-name="Path 425" d="M1333.357,2516.6h-22.4a11.215,11.215,0,0,1-11.2-11.2v-11.2a11.215,11.215,0,0,1,11.2-11.2h22.4a11.215,11.215,0,0,1,11.2,11.2v11.2a11.215,11.215,0,0,1-11.2,11.2Zm-22.4-28a5.608,5.608,0,0,0-5.6,5.6v11.2a5.608,5.608,0,0,0,5.6,5.6h22.4a5.608,5.608,0,0,0,5.6-5.6v-11.2a5.608,5.608,0,0,0-5.6-5.6Z" fill="#f4f4f4"/>
      </g>
    </g>
    <rect id="Rectangle_123" data-name="Rectangle 123" width="11.2" height="5.6" transform="translate(1313.757 2491.404)" fill="#f4f4f4"/>
    <rect id="Rectangle_124" data-name="Rectangle 124" width="5.6" height="5.6" transform="translate(1330.557 2491.404)" fill="#f4f4f4"/>
    <rect id="Rectangle_125" data-name="Rectangle 125" width="5.6" height="5.6" transform="translate(1308.157 2502.604)" fill="#f4f4f4"/>
    <rect id="Rectangle_126" data-name="Rectangle 126" width="11.2" height="5.6" transform="translate(1319.357 2502.604)" fill="#f4f4f4"/>
  </g>
</svg>
