<svg xmlns="http://www.w3.org/2000/svg" viewBox="0 0 108.65 192.44"><defs><style>.cls-1{fill:#8da2af;}</style></defs><title>Asset 1</title><g id="Layer_2" data-name="Layer 2"><g id="Layer_1-2" data-name="Layer 1"><path class="cls-1" d="M84,0H24.65C11.06,0,0,11.35,0,25.29V167.13c0,14,11.06,25.31,24.65,25.31H84c13.59,0,24.64-11.36,24.64-25.31V25.29C108.65,11.35,97.6,0,84,0ZM54.32,15.31H40.5V6.54H68.14v8.77Zm47.81,151.82c0,10.36-8.13,18.78-18.12,18.78H24.65c-10,0-18.12-8.42-18.12-18.78V25.29C6.53,15,14.66,6.54,24.65,6.54H34v12a3.26,3.26,0,0,0,3.26,3.27H71.4a3.26,3.26,0,0,0,3.26-3.27v-12H84c10,0,18.12,8.41,18.12,18.75Z"/><path class="cls-1" d="M45.72,132.66a3.26,3.26,0,0,1-2.31-.95L17.25,105.55a3.28,3.28,0,0,1,0-4.62L29.34,88.85a3.27,3.27,0,0,1,4.62,0l11.76,11.76,29-29a3.25,3.25,0,0,1,4.61,0L91.39,83.72a3.27,3.27,0,0,1,0,4.61L48.05,131.68a3.25,3.25,0,0,1-2.31,1ZM24.17,103.24l21.54,21.54L84.47,86,77,78.56l-29,29a3.28,3.28,0,0,1-4.62,0L31.65,95.77Z"/></g></g></svg>