<svg xmlns="http://www.w3.org/2000/svg" viewBox="0 0 28.48 31"><title>Asset 1</title><g id="Layer_2" data-name="Layer 2"><g id="Layer_1-2" data-name="Layer 1"><path d="M12.54,27.31C5.63,27.31,0,21.18,0,13.65S5.63,0,12.54,0,25.09,6.13,25.09,13.65,19.46,27.31,12.54,27.31Zm0-24.79c-5.64,0-10.22,5-10.22,11.13S6.9,24.79,12.54,24.79s10.23-5,10.23-11.14S18.18,2.52,12.54,2.52Z"/><path d="M27.32,31a1.08,1.08,0,0,1-.81-.37l-6.64-7.22a1.34,1.34,0,0,1,0-1.78,1.08,1.08,0,0,1,1.64,0l6.63,7.22a1.32,1.32,0,0,1,0,1.78A1.08,1.08,0,0,1,27.32,31Z"/></g></g></svg>