<svg xmlns="http://www.w3.org/2000/svg" width="168" height="168" viewBox="0 0 168 168">
  <g id="Group_565" data-name="Group 565" transform="translate(-1833.359 -2477.651)">
    <path id="Path_426" data-name="Path 426" d="M1860.456,2548.1a13.564,13.564,0,0,0,5.419,10.784V2575.2h16.258v-16.317a13.53,13.53,0,1,0-21.677-10.78Zm21.677,0a8.03,8.03,0,0,1-4.073,6.991l-1.346.786v13.9h-5.42v-13.9l-1.345-.786a8.028,8.028,0,0,1-4.074-6.991,8.129,8.129,0,0,1,16.258,0Z" fill="#f4f4f4"/>
    <path id="Path_427" data-name="Path 427" d="M1988.6,2559.736l-8.923,8.924-3.505-3.5-3.83,3.829,7.335,7.335,12.753-12.754Z" fill="#f4f4f4"/>
    <path id="Path_428" data-name="Path 428" d="M1920.069,2628.273l-3.505-3.5-3.83,3.829,7.335,7.335,12.753-12.754-3.83-3.83Z" fill="#f4f4f4"/>
    <path id="Path_429" data-name="Path 429" d="M1920.069,2509.047l-3.505-3.5-3.83,3.83,7.335,7.334,12.753-12.754-3.83-3.829Z" fill="#f4f4f4"/>
    <path id="Path_430" data-name="Path 430" d="M2001.359,2567.071a18.983,18.983,0,0,0-16.348-18.765,65.135,65.135,0,0,0-43.468-43.468,18.943,18.943,0,0,0-37.516-.09h-5.636v-2.71a24.387,24.387,0,1,0-48.774,0v18.882c-.592.032-1.183.086-1.779.086h-2.882l-.618,1.856c-.447,1.342-10.979,33.09-10.979,46.918,0,12.275,21.474,21.574,34.273,26.027a19.465,19.465,0,0,0,12.744,0,131.872,131.872,0,0,0,15.31-6.372,35.217,35.217,0,1,0,11.868-54.072c-2.009-6.864-3.7-11.976-3.879-12.5l-.614-1.852h-2.881c-.6,0-1.188-.059-1.78-.086v-10.753h5.636a18.942,18.942,0,0,0,37.453.317,59.748,59.748,0,0,1,37.885,37.885,18.94,18.94,0,0,0-.009,37.4,59.751,59.751,0,0,1-37.885,37.886,18.942,18.942,0,0,0-37.453.316H1874v5.419h30.023a18.943,18.943,0,0,0,37.516-.09,65.142,65.142,0,0,0,43.468-43.468,18.982,18.982,0,0,0,16.348-18.764Zm-100.841,19.735c.429-.253.854-.51,1.274-.768h7.171a37.577,37.577,0,0,0,3.749,9.051,29.947,29.947,0,0,1-12.194-8.283Zm22.26-49.542c2.913,0,6.016,4.137,8.156,10.839h-16.312c2.367-7.456,5.672-10.839,8.156-10.839Zm9.534,16.258a67.333,67.333,0,0,1,1.246,10.839h-19.306c-.407-3.283-1.1-7-1.96-10.839Zm20.133,10.839h-13.472a74.009,74.009,0,0,0-1.106-10.839h11.425a29.437,29.437,0,0,1,3.153,10.839Zm0,5.419a29.532,29.532,0,0,1-3.153,10.839h-11.425a74.006,74.006,0,0,0,1.106-10.839Zm-37.8,0h18.909a67.333,67.333,0,0,1-1.246,10.839h-23.326c3.432-3.265,5.663-6.9,5.663-10.839Zm8.129,27.1c-2.479,0-5.789-3.382-8.151-10.839h16.307c-2.14,6.7-5.243,10.839-8.156,10.839Zm10.062-1.784a37.431,37.431,0,0,0,3.767-9.055h9.14a29.881,29.881,0,0,1-12.907,9.055Zm12.912-46.99h-9.141a37.426,37.426,0,0,0-3.771-9.055,29.934,29.934,0,0,1,12.912,9.055Zm-33.081-8.978a33.9,33.9,0,0,0-2.556,5.451c-.343-1.31-.695-2.6-1.043-3.866a30.356,30.356,0,0,1,3.6-1.585Zm-3.441,30.655c0,7.574-16.507,15.992-30.638,20.91a14.155,14.155,0,0,1-9.185,0c-14.122-4.918-30.629-13.336-30.629-20.91,0-11.145,7.849-36.355,10.1-43.368a39.4,39.4,0,0,0,25.123-9.823,39.375,39.375,0,0,0,25.123,9.823c2.254,7.013,10.1,32.218,10.1,43.368Zm-27.1-53.927a34.536,34.536,0,0,1-6.214-4.891l-1.915-1.915-1.915,1.915a34.531,34.531,0,0,1-6.214,4.891v-13.815a8.129,8.129,0,1,1,16.258,0Zm5.419,2.742v-16.557a13.548,13.548,0,1,0-27.1,0v16.557a33.553,33.553,0,0,1-5.42,1.639v-18.2a18.968,18.968,0,0,1,37.936,0v18.2a34.072,34.072,0,0,1-5.42-1.639Zm35.226,2.411a13.549,13.549,0,1,1,13.549-13.548,13.565,13.565,0,0,1-13.549,13.548Zm0,119.226a13.548,13.548,0,1,1,13.549-13.548,13.565,13.565,0,0,1-13.549,13.548Zm59.613-59.613a13.548,13.548,0,1,1,13.549-13.548,13.565,13.565,0,0,1-13.549,13.548Z" fill="#f4f4f4"/>
    <rect id="Rectangle_127" data-name="Rectangle 127" width="5.419" height="5.419" transform="translate(1863.165 2623.974)" fill="#f4f4f4"/>
    <rect id="Rectangle_128" data-name="Rectangle 128" width="5.419" height="5.419" transform="translate(1852.327 2623.974)" fill="#f4f4f4"/>
    <path id="Path_431" data-name="Path 431" d="M1898.382,2569.261l5.42-.167a45.644,45.644,0,0,0-.619-5.731l-5.352.858a40.213,40.213,0,0,1,.551,5.04Z" fill="#f4f4f4"/>
    <path id="Path_432" data-name="Path 432" d="M1896.86,2559.014l5.3-1.111c-.361-1.716-.768-3.518-1.219-5.365l-5.261,1.273c.429,1.789.83,3.536,1.178,5.2Z" fill="#f4f4f4"/>
    <path id="Path_433" data-name="Path 433" d="M1899.6,2547.236c-.461-1.761-.944-3.536-1.437-5.284l-5.216,1.468c.483,1.716.958,3.455,1.409,5.184Z" fill="#f4f4f4"/>
  </g>
</svg>
