<svg xmlns="http://www.w3.org/2000/svg" xmlns:xlink="http://www.w3.org/1999/xlink" viewBox="0 0 203.48 152"><defs><style>.cls-1{fill:none;}.cls-2{fill:#fff;}.cls-3{clip-path:url(#clip-path);}.cls-4{fill:url(#linear-gradient);}.cls-5{clip-path:url(#clip-path-2);}.cls-6{fill:url(#linear-gradient-2);}</style><clipPath id="clip-path"><polygon class="cls-1" points="71.28 83.83 80.87 90.61 176.36 50.72 71.28 83.83"/></clipPath><linearGradient id="linear-gradient" x1="-1235.39" y1="-7931.25" x2="-1234.89" y2="-7931.25" gradientTransform="translate(221711.56 1422977.42) scale(179.41)" gradientUnits="userSpaceOnUse"><stop offset="0" stop-color="#fad62b"/><stop offset="1" stop-color="#fc450b"/></linearGradient><clipPath id="clip-path-2"><polygon class="cls-1" points="158.61 61.54 93.82 101.05 102.58 106.53 123.16 119.42 167.75 61.84 176.36 50.71 158.61 61.54"/></clipPath><linearGradient id="linear-gradient-2" x1="-1235.39" y1="-7931.34" x2="-1234.89" y2="-7931.34" gradientTransform="translate(221718.77 1423009.75) scale(179.41)" xlink:href="#linear-gradient"/></defs><title>Asset 1</title><g id="Layer_2" data-name="Layer 2"><g id="Layer_1-2" data-name="Layer 1"><path class="cls-2" d="M15.19,128.22a4.06,4.06,0,0,0,1.06-.1,4.16,4.16,0,0,1,.16,1.08c0,.21-.1.32-.28.32H14.6v9.63l.08,1.85a8.56,8.56,0,0,1-1.32.1.29.29,0,0,1-.32-.33V129.52h-.59a4.66,4.66,0,0,0-1.06.09,4,4,0,0,1-.16-1.08c0-.21.09-.31.28-.31Z"/><path class="cls-2" d="M25,140.77V130.11a1.88,1.88,0,0,1,.67-1.54,2.81,2.81,0,0,1,1.83-.55,2.83,2.83,0,0,1,1.8.51A1.82,1.82,0,0,1,30,130v9.3a.76.76,0,0,0,.17.58.79.79,0,0,0,.57.17c0,.75-.41,1.12-1.25,1.12s-1-.45-1-1.36v-3.75H26.59v3.06l.08,1.85a8.38,8.38,0,0,1-1.32.1c-.2,0-.31-.11-.31-.33m1.55-10.66v4.68h1.83v-4.68a.69.69,0,0,0-.25-.58,1,1,0,0,0-.67-.21,1,1,0,0,0-.66.21.72.72,0,0,0-.25.58"/><path class="cls-2" d="M39.46,140.77V130.13a1,1,0,0,0-.16-.62.71.71,0,0,0-.57-.19,1.08,1.08,0,0,1,.27-.81,1.35,1.35,0,0,1,1-.29,1,1,0,0,1,.92.65,2.45,2.45,0,0,1,1.58-.65,1.71,1.71,0,0,1,1.94,1.93V135a1.88,1.88,0,0,1-.67,1.54,2.84,2.84,0,0,1-1.84.55H41v2.08l.08,1.85a8.56,8.56,0,0,1-1.32.1c-.21,0-.31-.11-.31-.33m2.61-11.25a1.5,1.5,0,0,0-1.06.53v5.72h.91a1.06,1.06,0,0,0,.66-.2.73.73,0,0,0,.26-.59v-4.72a.67.67,0,0,0-.77-.74"/><path class="cls-2" d="M67.21,129.83a8,8,0,0,0-.14-1.61,12.12,12.12,0,0,1,1.36-.08q.33,0,.33.3v10.67a1.88,1.88,0,0,1-.67,1.54,2.71,2.71,0,0,1-1.8.55,3,3,0,0,1-1.8-.5,1.58,1.58,0,0,1-.66-1.31v-1.34c0-.23.16-.4.51-.49a2,2,0,0,1,.55-.08,2.64,2.64,0,0,1,.55.06,8,8,0,0,0-.06,1v.57a.72.72,0,0,0,.25.59,1.09,1.09,0,0,0,.67.2,1,1,0,0,0,.66-.2.72.72,0,0,0,.25-.59v-3.06a1.86,1.86,0,0,1-1.38.51c-1.34,0-2-.63-2-1.89v-4.78a.63.63,0,0,0-.75-.75c0-.74.42-1.12,1.26-1.12.69,0,1,.45,1,1.36v5.17a.63.63,0,0,0,.72.71,1.23,1.23,0,0,0,1.11-.69Z"/><path class="cls-2" d="M78,139.19v-9.08a1.9,1.9,0,0,1,.66-1.54,2.85,2.85,0,0,1,1.83-.55,2.8,2.8,0,0,1,1.8.51,1.79,1.79,0,0,1,.64,1.5v9.09a1.85,1.85,0,0,1-.68,1.53,3.37,3.37,0,0,1-3.63,0,1.81,1.81,0,0,1-.62-1.5m1.55-9.08v9a.75.75,0,0,0,.24.57,1.16,1.16,0,0,0,1.33,0,.69.69,0,0,0,.26-.57v-9a.7.7,0,0,0-.26-.58,1.16,1.16,0,0,0-1.33,0,.71.71,0,0,0-.24.58"/><path class="cls-2" d="M95.63,129.83a8,8,0,0,0-.14-1.61,12.12,12.12,0,0,1,1.36-.08q.33,0,.33.3v10.89a.85.85,0,0,0,.16.59.72.72,0,0,0,.57.18,1,1,0,0,1-.27.8,1.06,1.06,0,0,1-.81.3,1,1,0,0,1-1.07-.61,1.91,1.91,0,0,1-1.51.61q-2,0-2-1.89v-9.42a.62.62,0,0,0-.74-.75c0-.74.42-1.12,1.26-1.12.69,0,1,.45,1,1.36v9.81a.63.63,0,0,0,.72.71,1.24,1.24,0,0,0,1.11-.69Z"/><path class="cls-2" d="M106.7,140.77V130.13a.92.92,0,0,0-.16-.62.69.69,0,0,0-.57-.19,1,1,0,0,1,.28-.81,1.31,1.31,0,0,1,.94-.29,1,1,0,0,1,.93.65,2.42,2.42,0,0,1,1.57-.65,1.71,1.71,0,0,1,2,1.93v4.56a1.83,1.83,0,0,1-1,1.77l.42,2.63c.06.42.27.63.61.63a1.13,1.13,0,0,0,.37-.07,1.79,1.79,0,0,1,.08.56.91.91,0,0,1-.33.64,1.1,1.1,0,0,1-.83.33,1.15,1.15,0,0,1-1.32-1l-.57-3.41h-.77v2.36l.08,1.85a8.38,8.38,0,0,1-1.32.1c-.21,0-.31-.11-.31-.33m2.62-11.25a1.52,1.52,0,0,0-1.07.53v5.45h.91a1,1,0,0,0,.67-.21.7.7,0,0,0,.25-.58v-4.45a.66.66,0,0,0-.76-.74"/><path class="cls-2" d="M135.37,140.65a2.87,2.87,0,0,1-1.83.55,2.77,2.77,0,0,1-1.76-.51,1.77,1.77,0,0,1-.65-1.5v-9.08a1.88,1.88,0,0,1,.67-1.54,2.7,2.7,0,0,1,1.79-.55,3,3,0,0,1,1.81.5,1.58,1.58,0,0,1,.66,1.31v2.44c0,.24-.17.4-.51.49a1.75,1.75,0,0,1-.55.08,2.57,2.57,0,0,1-.55-.06,7.91,7.91,0,0,0,.06-1v-1.67a.71.71,0,0,0-.26-.58,1,1,0,0,0-.67-.21,1,1,0,0,0-.65.21.7.7,0,0,0-.25.58v9a.73.73,0,0,0,.25.58,1,1,0,0,0,.65.21,1.07,1.07,0,0,0,.67-.2.73.73,0,0,0,.26-.59v-.43l-.06-1a2.57,2.57,0,0,1,.55-.06,2.09,2.09,0,0,1,.55.08c.34.09.51.25.51.49v1.08a1.7,1.7,0,0,1-.69,1.38"/><path class="cls-2" d="M145.31,140.77V129.91a.63.63,0,0,0-.75-.75c0-.74.42-1.12,1.26-1.12.69,0,1,.45,1,1.36v5.13h1.83v-4.46l-.08-1.85a8.56,8.56,0,0,1,1.32-.1c.21,0,.31.11.31.34v10.87a.8.8,0,0,0,.17.58.82.82,0,0,0,.58.17c0,.75-.42,1.12-1.26,1.12-.69,0-1-.45-1-1.36v-4h-1.83v3.32l.08,1.85a8.56,8.56,0,0,1-1.32.1c-.21,0-.31-.11-.31-.33"/><path class="cls-2" d="M159.68,140.77v-10.7l-.07-1.85a8.35,8.35,0,0,1,1.31-.1c.21,0,.32.11.32.34v10.69l.08,1.85a8.56,8.56,0,0,1-1.32.1.29.29,0,0,1-.32-.33"/><path class="cls-2" d="M170.66,140.77V130.13a.92.92,0,0,0-.16-.62.69.69,0,0,0-.57-.19,1,1,0,0,1,.28-.81,1.31,1.31,0,0,1,.94-.29,1,1,0,0,1,.93.65,2.42,2.42,0,0,1,1.57-.65,1.71,1.71,0,0,1,1.94,1.93V135a1.88,1.88,0,0,1-.67,1.54,2.84,2.84,0,0,1-1.84.55h-.87v2.08l.08,1.85a8.47,8.47,0,0,1-1.32.1c-.21,0-.31-.11-.31-.33m2.61-11.25a1.52,1.52,0,0,0-1.06.53v5.72h.91a1.11,1.11,0,0,0,.67-.2A.72.72,0,0,0,174,135v-4.72c0-.49-.25-.74-.77-.74"/><polygon class="cls-2" points="83.76 118.78 112.52 100.07 93.82 101.05 83.76 118.78"/><g class="cls-3"><rect class="cls-4" x="67.86" y="29.66" width="111.92" height="82" transform="translate(-18.45 61.59) rotate(-26.06)"/></g><g class="cls-5"><rect class="cls-6" x="82.92" y="36.07" width="104.33" height="97.98" transform="translate(-23.64 68.01) rotate(-26.06)"/></g><path class="cls-2" d="M141.15,22.79a13.75,13.75,0,0,1,4.2-2.89,12.5,12.5,0,0,1,5.15-1.07h25.86V0H152.13a31.78,31.78,0,0,0-12.55,2.51,32.05,32.05,0,0,0-17.2,17.2,31.64,31.64,0,0,0-2.51,12.55,31.19,31.19,0,0,0,2.51,12.5A32.39,32.39,0,0,0,129.28,55a31.2,31.2,0,0,0,4.77,3.91h0l42.3-13.33H150.5a12.34,12.34,0,0,1-5.15-1.07,13.72,13.72,0,0,1-4.2-2.88,13.87,13.87,0,0,1-2.89-4.2,12.55,12.55,0,0,1-1.07-5.16,12.87,12.87,0,0,1,1.07-5.2,13.48,13.48,0,0,1,2.89-4.27"/><path class="cls-2" d="M104.2,0,87.63,41.68,72.44,3.89c-.09-.19-.19-.37-.29-.55L70.81,0H0V18.83H25.11V93.72l18.83-5.94V18.83H59.63L78.47,64.4,72.74,78.71h0l21.54-6.79L123,0Z"/></g></g></svg>