<svg xmlns="http://www.w3.org/2000/svg" viewBox="0 0 232.68 299.42"><defs><style>.cls-1{fill:#9a4f9e;}</style></defs><title>Asset 1</title><g id="Layer_2" data-name="Layer 2"><g id="Layer_1-2" data-name="Layer 1"><path class="cls-1" d="M181.32,206.57a19.63,19.63,0,0,0-12.87-5.75l8.53-8.54a21.94,21.94,0,0,0-15.9-37.46,21.94,21.94,0,0,0-18-34.15L179.7,84a21.95,21.95,0,1,0-31-31L49.39,152.25V121A24.7,24.7,0,0,0,0,121v96.16a82.31,82.31,0,0,0,140.51,58.19l40.81-40.81A19.75,19.75,0,0,0,181.32,206.57ZM130,273.06A73.54,73.54,0,0,1,8.78,217.12V121a15.92,15.92,0,0,1,31.83,0v39.26a5.42,5.42,0,0,0,1.59,3.87,5.51,5.51,0,0,0,7.78,0L154.87,59.19a13.17,13.17,0,0,1,18.62,18.63l-82.9,82.9a5.49,5.49,0,1,0,7.76,7.76l35.18-35.18a13.17,13.17,0,0,1,18.62,18.63l-31.23,31.23a5.49,5.49,0,1,0,7.76,7.76l23.47-23.47a13.17,13.17,0,0,1,18.63,18.62l-27.42,27.42a5.49,5.49,0,1,0,7.76,7.76l8.47-8.47a11,11,0,0,1,15.53,15.51Z"/><circle class="cls-1" cx="209.58" cy="23.11" r="4.39"/><circle class="cls-1" cx="198.71" cy="33.97" r="3.29"/><circle class="cls-1" cx="189.79" cy="42.89" r="2.19"/><circle class="cls-1" cx="218.02" cy="33.54" r="4.39"/><circle class="cls-1" cx="205.14" cy="41.9" r="3.29"/><circle class="cls-1" cx="194.55" cy="48.78" r="2.19"/><circle class="cls-1" cx="224.12" cy="45.5" r="4.39"/><circle class="cls-1" cx="209.77" cy="51" r="3.29"/><circle class="cls-1" cx="197.99" cy="55.52" r="2.19"/><circle class="cls-1" cx="227.59" cy="58.46" r="4.39"/><circle class="cls-1" cx="212.41" cy="60.86" r="3.29"/><circle class="cls-1" cx="199.95" cy="62.84" r="2.19"/><circle class="cls-1" cx="228.29" cy="71.86" r="4.39"/><circle class="cls-1" cx="212.95" cy="71.06" r="3.29"/><circle class="cls-1" cx="200.35" cy="70.4" r="2.19"/><circle class="cls-1" cx="226.19" cy="85.12" r="4.39"/><circle class="cls-1" cx="211.35" cy="81.14" r="3.29"/><circle class="cls-1" cx="199.16" cy="77.88" r="2.19"/><circle class="cls-1" cx="221.38" cy="97.65" r="4.39"/><circle class="cls-1" cx="207.69" cy="90.67" r="3.29"/><circle class="cls-1" cx="196.45" cy="84.95" r="2.19"/><circle class="cls-1" cx="214.07" cy="108.91" r="4.39"/><circle class="cls-1" cx="202.13" cy="99.24" r="3.29"/><circle class="cls-1" cx="192.32" cy="91.29" r="2.19"/><circle class="cls-1" cx="204.58" cy="118.4" r="4.39"/><circle class="cls-1" cx="194.91" cy="106.46" r="3.29"/><circle class="cls-1" cx="186.97" cy="96.65" r="2.19"/><circle class="cls-1" cx="193.33" cy="125.71" r="4.39"/><circle class="cls-1" cx="186.35" cy="112.02" r="3.29"/><circle class="cls-1" cx="180.62" cy="100.77" r="2.19"/><circle class="cls-1" cx="180.8" cy="130.52" r="4.39"/><circle class="cls-1" cx="176.82" cy="115.68" r="3.29"/><circle class="cls-1" cx="173.55" cy="103.49" r="2.19"/><circle class="cls-1" cx="199.15" cy="14.66" r="4.39"/><circle class="cls-1" cx="190.78" cy="27.55" r="3.29"/><circle class="cls-1" cx="183.9" cy="38.13" r="2.19"/><circle class="cls-1" cx="187.19" cy="8.57" r="4.39"/><circle class="cls-1" cx="181.68" cy="22.91" r="3.29"/><circle class="cls-1" cx="177.16" cy="34.69" r="2.19"/><circle class="cls-1" cx="174.22" cy="5.09" r="4.39"/><circle class="cls-1" cx="171.82" cy="20.27" r="3.29"/><circle class="cls-1" cx="169.84" cy="32.73" r="2.19"/><circle class="cls-1" cx="160.82" cy="4.39" r="4.39"/><circle class="cls-1" cx="161.62" cy="19.73" r="3.29"/><circle class="cls-1" cx="162.28" cy="32.34" r="2.19"/><circle class="cls-1" cx="147.56" cy="6.49" r="4.39"/><circle class="cls-1" cx="151.54" cy="21.33" r="3.29"/><circle class="cls-1" cx="154.81" cy="33.52" r="2.19"/><circle class="cls-1" cx="135.03" cy="11.3" r="4.39"/><circle class="cls-1" cx="142.01" cy="24.99" r="3.29"/><circle class="cls-1" cx="147.74" cy="36.23" r="2.19"/><circle class="cls-1" cx="123.78" cy="18.61" r="4.39"/><circle class="cls-1" cx="133.44" cy="30.55" r="3.29"/><circle class="cls-1" cx="141.39" cy="40.36" r="2.19"/><circle class="cls-1" cx="114.29" cy="28.1" r="4.39"/><circle class="cls-1" cx="126.23" cy="37.77" r="3.29"/><circle class="cls-1" cx="136.03" cy="45.71" r="2.19"/><circle class="cls-1" cx="106.98" cy="39.36" r="4.39"/><circle class="cls-1" cx="120.66" cy="46.33" r="3.29"/><circle class="cls-1" cx="131.91" cy="52.06" r="2.19"/><circle class="cls-1" cx="102.17" cy="51.89" r="4.39"/><circle class="cls-1" cx="117.01" cy="55.86" r="3.29"/><circle class="cls-1" cx="129.2" cy="59.13" r="2.19"/></g></g></svg>