<svg xmlns="http://www.w3.org/2000/svg" viewBox="0 0 499.8 273.58"><defs><style>.cls-1{fill:#9a4f9e;}</style></defs><title>Asset 5</title><g id="Layer_2" data-name="Layer 2"><g id="Layer_1-2" data-name="Layer 1"><path class="cls-1" d="M495.41,273.58a4.42,4.42,0,0,1-3.11-1.28l-3.69-3.69-3.69,3.69a4.39,4.39,0,0,1-6.2-6.21l3.69-3.69-3.69-3.7a4.38,4.38,0,1,1,6.2-6.2l3.69,3.69,3.69-3.69a4.39,4.39,0,1,1,6.21,6.2l-3.69,3.7,3.69,3.69a4.39,4.39,0,0,1-3.1,7.49ZM18,117.72a4.35,4.35,0,0,1-3.1-1.29l-3.69-3.69-3.7,3.69a4.39,4.39,0,0,1-6.2-6.21L5,106.53l-3.69-3.69a4.39,4.39,0,0,1,6.2-6.21l3.7,3.7,3.69-3.7a4.39,4.39,0,0,1,6.21,6.21l-3.7,3.69,3.69,3.69a4.4,4.4,0,0,1-3.1,7.5ZM461.15,22.37A4.41,4.41,0,0,1,458,21.09l-3.69-3.7-3.69,3.7a4.39,4.39,0,0,1-6.21-6.21l3.69-3.69-3.69-3.7a4.39,4.39,0,0,1,6.21-6.2L454.35,5,458,1.29a4.39,4.39,0,0,1,6.21,6.2l-3.69,3.7,3.69,3.69a4.39,4.39,0,0,1-3.1,7.49Z"/></g></g></svg>