<svg xmlns="http://www.w3.org/2000/svg" viewBox="0 0 371.51 391.27"><defs><style>.cls-1{fill:#e8ccea;}.cls-1,.cls-5{fill-rule:evenodd;}.cls-2{fill:#cd07f6;}.cls-3,.cls-5{fill:#9a4f9e;}.cls-4{fill:#fff;}</style></defs><title>Asset 1</title><g id="Layer_2" data-name="Layer 2"><g id="Layer_1-2" data-name="Layer 1"><path class="cls-1" d="M185.76,355.79c102.51,0,185.75,7.95,185.75,17.74s-83.24,17.74-185.75,17.74S0,383.32,0,373.53s83.23-17.74,185.76-17.74Z"/><path class="cls-2" d="M277.77,202.88H233.66V81.9c0-20.44-18.14-37.07-40.43-37.07h-11c-22.3,0-40.43,16.63-40.43,37.07v121H97.66V81.9c0-42.73,37.92-77.51,84.54-77.51h11a89.47,89.47,0,0,1,48.09,13.79c22,14,36.45,37.35,36.45,63.72v121Z"/><path class="cls-3" d="M277.77,207.27H233.65a4.4,4.4,0,0,1-4.39-4.39V81.9c0-18-16.16-32.68-36-32.68h-11a4.39,4.39,0,1,1,0-8.78h11C217.94,40.44,238,59,238,81.9V198.49h35.34V81.9a4.39,4.39,0,0,1,8.78,0v121A4.39,4.39,0,0,1,277.77,207.27Zm-136,0H97.66a4.4,4.4,0,0,1-4.39-4.39V81.9C93.27,36.74,133.16,0,182.2,0h11a94.38,94.38,0,0,1,46.86,12.31,4.39,4.39,0,0,1-4.37,7.62A85.46,85.46,0,0,0,193.23,8.78h-11c-44.19,0-80.15,32.8-80.15,73.12V198.49h35.33V81.9a4.39,4.39,0,1,1,8.78,0v121A4.4,4.4,0,0,1,141.77,207.27Z"/><path class="cls-4" d="M314.12,342.4c0,15.8-14.1,28.74-31.34,28.74H92.64c-17.23,0-31.34-12.94-31.34-28.74V194.89c0-15.8,14.11-28.73,31.34-28.73H282.78c17.24,0,31.34,12.93,31.34,28.73V342.4Z"/><path class="cls-3" d="M282.78,375.53H92.64c-19.7,0-35.73-14.86-35.73-33.13V256.87a4.39,4.39,0,0,1,8.78,0V342.4c0,13.43,12.09,24.35,27,24.35H282.78c14.86,0,27-10.92,27-24.35a4.39,4.39,0,0,1,8.78,0C318.51,360.67,302.49,375.53,282.78,375.53Zm31.34-81.17a4.4,4.4,0,0,1-4.39-4.39V194.89c0-13.42-12.09-24.34-27-24.34H92.64a27.75,27.75,0,0,0-22.57,11.1A4.39,4.39,0,0,1,63,176.5a36.54,36.54,0,0,1,29.68-14.73H282.78c19.71,0,35.73,14.86,35.73,33.12V290A4.39,4.39,0,0,1,314.12,294.36Z"/><path class="cls-5" d="M187.71,239.17c12.17,0,22,13.21,22,29.48s-9.88,29.49-22,29.49-22.06-13.21-22.06-29.49,9.89-29.48,22.06-29.48Z"/></g></g></svg>