<svg xmlns="http://www.w3.org/2000/svg" xmlns:xlink="http://www.w3.org/1999/xlink" width="161.01" height="128.908" viewBox="0 0 161.01 128.908">
  <defs>
    <linearGradient id="linear-gradient" x1="0.067" y1="0.973" x2="0.834" y2="-0.016" gradientUnits="objectBoundingBox">
      <stop offset="0" stop-color="#fad62b"/>
      <stop offset="1" stop-color="#fc450b"/>
    </linearGradient>
    <linearGradient id="linear-gradient-2" x1="-0.042" y1="0.923" x2="0.935" y2="0.349" xlink:href="#linear-gradient"/>
  </defs>
  <g id="Group_503" data-name="Group 503" transform="translate(-79.968 -36.191)">
    <g id="Group_496" data-name="Group 496">
      <g id="Group_495" data-name="Group 495">
        <g id="Group_474" data-name="Group 474">
          <g id="Group_473" data-name="Group 473">
            <path id="Path_368" data-name="Path 368" d="M93.833,153.248a3.835,3.835,0,0,0,.97-.09,3.584,3.584,0,0,1,.144.988c0,.192-.084.287-.252.287h-1.4v8.8l.071,1.688a8.379,8.379,0,0,1-1.2.089c-.191,0-.287-.1-.287-.305V154.433h-.538a3.882,3.882,0,0,0-.97.09,3.572,3.572,0,0,1-.144-.987q0-.288.252-.288Z" fill="#231f20"/>
          </g>
        </g>
        <g id="Group_476" data-name="Group 476">
          <g id="Group_475" data-name="Group 475">
            <path id="Path_369" data-name="Path 369" d="M102.829,164.7v-9.732a1.714,1.714,0,0,1,.611-1.4,3.072,3.072,0,0,1,3.313-.036,1.646,1.646,0,0,1,.583,1.364v8.493a.571.571,0,0,0,.682.683q0,1.023-1.149,1.023-.951,0-.952-1.239v-3.429h-1.669v2.8l.072,1.688a8.389,8.389,0,0,1-1.2.089C102.925,165.009,102.829,164.908,102.829,164.7Zm1.419-9.732v4.274h1.669v-4.274a.643.643,0,0,0-.233-.53.945.945,0,0,0-.61-.188.909.909,0,0,0-.6.188A.654.654,0,0,0,104.248,154.972Z" fill="#231f20"/>
          </g>
        </g>
        <g id="Group_478" data-name="Group 478">
          <g id="Group_477" data-name="Group 477">
            <path id="Path_370" data-name="Path 370" d="M115.991,164.7V154.99a.875.875,0,0,0-.144-.565.654.654,0,0,0-.521-.171.938.938,0,0,1,.252-.736,1.178,1.178,0,0,1,.862-.27.866.866,0,0,1,.844.593,2.21,2.21,0,0,1,1.436-.593,1.564,1.564,0,0,1,1.778,1.76v4.417a1.7,1.7,0,0,1-.62,1.4,2.588,2.588,0,0,1-1.679.5h-.79v1.9l.072,1.688a8.379,8.379,0,0,1-1.2.089C116.086,165.009,115.991,164.908,115.991,164.7Zm2.388-10.271a1.4,1.4,0,0,0-.97.485v5.225h.826a.941.941,0,0,0,.611-.188.644.644,0,0,0,.233-.53v-4.309A.611.611,0,0,0,118.379,154.433Z" fill="#231f20"/>
          </g>
        </g>
        <g id="Group_480" data-name="Group 480">
          <g id="Group_479" data-name="Group 479">
            <path id="Path_371" data-name="Path 371" d="M141.326,154.721a7.237,7.237,0,0,0-.126-1.473,10.793,10.793,0,0,1,1.239-.071c.2,0,.305.089.305.269v9.75a1.713,1.713,0,0,1-.61,1.4,2.507,2.507,0,0,1-1.643.5,2.676,2.676,0,0,1-1.643-.458,1.425,1.425,0,0,1-.611-1.194v-1.221q0-.322.467-.449a1.857,1.857,0,0,1,.5-.071,2.389,2.389,0,0,1,.5.053,7.386,7.386,0,0,0-.054.916v.521a.643.643,0,0,0,.234.53.943.943,0,0,0,.61.188.907.907,0,0,0,.6-.188.655.655,0,0,0,.225-.53v-2.8a1.7,1.7,0,0,1-1.257.467q-1.831,0-1.832-1.724v-4.363a.57.57,0,0,0-.682-.683q0-1.023,1.149-1.023.953,0,.952,1.239v4.722a.575.575,0,0,0,.655.646,1.118,1.118,0,0,0,1.015-.628Z" fill="#231f20"/>
          </g>
        </g>
        <g id="Group_482" data-name="Group 482">
          <g id="Group_481" data-name="Group 481">
            <path id="Path_372" data-name="Path 372" d="M151.165,163.268v-8.3a1.714,1.714,0,0,1,.611-1.4,3.072,3.072,0,0,1,3.313-.036,1.643,1.643,0,0,1,.583,1.364v8.3a1.7,1.7,0,0,1-.619,1.4,2.59,2.59,0,0,1-1.679.5,2.526,2.526,0,0,1-1.634-.467A1.655,1.655,0,0,1,151.165,163.268Zm1.419-8.3V163.2a.663.663,0,0,0,.224.521.883.883,0,0,0,.6.2.943.943,0,0,0,.61-.188.643.643,0,0,0,.234-.53v-8.224a.643.643,0,0,0-.234-.53.943.943,0,0,0-.61-.188.911.911,0,0,0-.6.188A.657.657,0,0,0,152.584,154.972Z" fill="#231f20"/>
          </g>
        </g>
        <g id="Group_484" data-name="Group 484">
          <g id="Group_483" data-name="Group 483">
            <path id="Path_373" data-name="Path 373" d="M167.272,154.721a7.308,7.308,0,0,0-.126-1.473,10.779,10.779,0,0,1,1.239-.071c.2,0,.305.089.305.269v9.947a.805.805,0,0,0,.144.539.674.674,0,0,0,.52.162.961.961,0,0,1-.242.736.991.991,0,0,1-.745.269.922.922,0,0,1-.97-.556,1.768,1.768,0,0,1-1.382.556q-1.831,0-1.832-1.724v-8.6a.571.571,0,0,0-.682-.683q0-1.023,1.149-1.023.951,0,.952,1.239v8.96a.575.575,0,0,0,.655.646,1.118,1.118,0,0,0,1.015-.628Z" fill="#231f20"/>
          </g>
        </g>
        <g id="Group_486" data-name="Group 486">
          <g id="Group_485" data-name="Group 485">
            <path id="Path_374" data-name="Path 374" d="M177.381,164.7V154.99a.875.875,0,0,0-.144-.565.654.654,0,0,0-.521-.171.938.938,0,0,1,.252-.736,1.175,1.175,0,0,1,.861-.27.867.867,0,0,1,.845.593,2.21,2.21,0,0,1,1.436-.593,1.564,1.564,0,0,1,1.778,1.76v4.166a1.676,1.676,0,0,1-.952,1.616l.377,2.406c.06.383.245.575.557.575a1.027,1.027,0,0,0,.341-.072,1.646,1.646,0,0,1,.071.511.852.852,0,0,1-.3.593,1.034,1.034,0,0,1-.763.3,1.049,1.049,0,0,1-1.2-.916l-.521-3.106h-.7v2.155l.072,1.688a8.379,8.379,0,0,1-1.2.089C177.476,165.009,177.381,164.908,177.381,164.7Zm2.388-10.271a1.4,1.4,0,0,0-.97.485v4.974h.826a.943.943,0,0,0,.611-.189.642.642,0,0,0,.233-.529v-4.058A.611.611,0,0,0,179.769,154.433Z" fill="#231f20"/>
          </g>
        </g>
        <g id="Group_488" data-name="Group 488">
          <g id="Group_487" data-name="Group 487">
            <path id="Path_375" data-name="Path 375" d="M203.551,164.6a2.605,2.605,0,0,1-1.661.5,2.54,2.54,0,0,1-1.616-.467,1.632,1.632,0,0,1-.593-1.364v-8.3a1.714,1.714,0,0,1,.611-1.4,2.505,2.505,0,0,1,1.643-.5,2.672,2.672,0,0,1,1.643.458,1.424,1.424,0,0,1,.61,1.194v2.226c0,.216-.155.366-.467.449a1.813,1.813,0,0,1-.5.072,2.383,2.383,0,0,1-.5-.054,7.365,7.365,0,0,0,.054-.916v-1.526a.643.643,0,0,0-.234-.53.943.943,0,0,0-.61-.188.911.911,0,0,0-.6.188.657.657,0,0,0-.224.53V163.2a.663.663,0,0,0,.224.521.883.883,0,0,0,.6.2.943.943,0,0,0,.61-.188.643.643,0,0,0,.234-.53v-.4l-.054-.916a2.383,2.383,0,0,1,.5-.054,1.813,1.813,0,0,1,.5.072c.312.084.467.233.467.449v.988A1.539,1.539,0,0,1,203.551,164.6Z" fill="#231f20"/>
          </g>
        </g>
        <g id="Group_490" data-name="Group 490">
          <g id="Group_489" data-name="Group 489">
            <path id="Path_376" data-name="Path 376" d="M212.627,164.7v-9.912a.569.569,0,0,0-.682-.682q0-1.023,1.149-1.023.953,0,.952,1.239v4.686h1.67v-4.076l-.072-1.688a8.382,8.382,0,0,1,1.2-.09c.191,0,.287.1.287.306v9.929a.571.571,0,0,0,.682.683q0,1.023-1.149,1.023-.951,0-.951-1.239V160.2h-1.67v3.035l.072,1.688a8.389,8.389,0,0,1-1.2.089C212.723,165.009,212.627,164.908,212.627,164.7Z" fill="#231f20"/>
          </g>
        </g>
        <g id="Group_492" data-name="Group 492">
          <g id="Group_491" data-name="Group 491">
            <path id="Path_377" data-name="Path 377" d="M225.753,164.7v-9.768l-.072-1.688a8.382,8.382,0,0,1,1.2-.09c.191,0,.287.1.287.306v9.768l.072,1.688a8.379,8.379,0,0,1-1.2.089C225.848,165.009,225.753,164.908,225.753,164.7Z" fill="#231f20"/>
          </g>
        </g>
        <g id="Group_494" data-name="Group 494">
          <g id="Group_493" data-name="Group 493">
            <path id="Path_378" data-name="Path 378" d="M235.772,164.7V154.99a.875.875,0,0,0-.144-.565.653.653,0,0,0-.52-.171.941.941,0,0,1,.251-.736,1.18,1.18,0,0,1,.862-.27.866.866,0,0,1,.844.593,2.214,2.214,0,0,1,1.436-.593,1.564,1.564,0,0,1,1.778,1.76v4.417a1.7,1.7,0,0,1-.619,1.4,2.59,2.59,0,0,1-1.679.5h-.79v1.9l.071,1.688a8.379,8.379,0,0,1-1.2.089C235.868,165.009,235.772,164.908,235.772,164.7Zm2.388-10.271a1.4,1.4,0,0,0-.969.485v5.225h.826a.94.94,0,0,0,.61-.188.642.642,0,0,0,.234-.53v-4.309A.612.612,0,0,0,238.16,154.433Z" fill="#231f20"/>
          </g>
        </g>
      </g>
    </g>
    <g id="Group_502" data-name="Group 502">
      <g id="Group_501" data-name="Group 501">
        <g id="Group_498" data-name="Group 498">
          <path id="Path_379" data-name="Path 379" d="M156.436,144.626l26.255-17.079-17.065.9Z" fill="#231f20"/>
          <g id="Group_497" data-name="Group 497">
            <path id="Path_380" data-name="Path 380" d="M240.978,82.49,153.8,118.908l-8.757-6.187Z" fill="url(#linear-gradient)"/>
            <path id="Path_381" data-name="Path 381" d="M240.978,82.489l-7.862,10.156-40.7,52.572-18.794-11.766-7.992-5,59.149-36.074Z" fill="url(#linear-gradient-2)"/>
          </g>
        </g>
        <g id="Group_500" data-name="Group 500">
          <g id="Group_499" data-name="Group 499">
            <path id="Path_382" data-name="Path 382" d="M208.83,57a12.609,12.609,0,0,1,3.841-2.638,11.375,11.375,0,0,1,4.7-.974h23.61V36.191H218.86A28.974,28.974,0,0,0,207.4,38.484a29.255,29.255,0,0,0-15.7,15.7,28.949,28.949,0,0,0-2.293,11.46,28.522,28.522,0,0,0,2.293,11.405,29.621,29.621,0,0,0,6.3,9.344,28.8,28.8,0,0,0,4.353,3.574h0L240.971,77.8l.007-.005h-23.61a11.3,11.3,0,0,1-4.7-.974,12.731,12.731,0,0,1-6.479-6.473,11.432,11.432,0,0,1-.974-4.7,11.8,11.8,0,0,1,.974-4.753A12.425,12.425,0,0,1,208.83,57Z" fill="#cd07f6"/>
            <path id="Path_383" data-name="Path 383" d="M175.1,36.191,159.97,74.244l-13.87-34.5c-.075-.177-.169-.339-.258-.505l-1.231-3.046H79.968V53.384h22.925V121.75l17.193-5.417V53.384h14.326l17.192,41.6-5.224,13.058h0l19.663-6.2,26.247-65.66Z" fill="#cd07f6"/>
          </g>
        </g>
      </g>
    </g>
  </g>
</svg>
